<svg height="283.46" width="283.46" xmlns="http://www.w3.org/2000/svg"><g clip-rule="evenodd" fill-rule="evenodd"><path d="m275 141.729c.611 72.302-58.557 133.45-133.039 133.559-74.137.108-133.746-59.92-133.736-133.502.009-72.982 58.945-133.491 133.546-133.423 75.055.07 133.653 61.217 133.229 133.366z" fill="#c94526"/><path d="m129.872 91.64c-.02-.586-.413-1.027-.671-1.513-1.844-3.449-3.628-6.933-5.576-10.321-.896-1.562-.789-2.818.131-4.308 2.449-3.959 4.776-7.993 7.201-12.08-1.906-1.718-3.783-3.412-5.662-5.103a2801.985 2801.985 0 0 0 -7.713-6.927c-.713-.638-1.311-1.328-1.13-2.37.163-.939.888-1.432 1.612-1.92 5.008-3.379 10.012-6.762 15.016-10.146 2.05-1.386 4.092-2.783 6.145-4.166 1.697-1.145 2.155-1.144 3.881.024 14.294 9.675 28.587 19.353 42.879 29.031 14.436 9.775 28.868 19.554 43.305 29.326.427.288.861.615 1.341.764 1.252.385 1.706 1.268 1.729 2.475.014.691.014 1.382.014 2.074v106.614c0 3.259-.422 3.678-3.674 3.678l-173.833-.001c-.749 0-1.499.026-2.246-.015-1.384-.077-2.103-.771-2.226-2.132-.041-.457-.016-.921-.016-1.381l.001-107.825c0-.46-.028-.924.016-1.381.129-1.323.886-2.077 2.216-2.205.456-.044.92-.01 1.381-.01 24.825-.001 49.65 0 74.475-.009.437 0 .907.152 1.404-.173z" fill="#121212"/><path d="m223.518 201.741h-164.772c.042-.615.519-.805.83-1.083 17.879-15.946 35.767-31.885 53.652-47.823 1.369-1.221 1.146-.981 2.337.052.564.491 1.094 1.031 1.699 1.467.948.683 1.748.64 2.688-.078.365-.279.683-.618 1.014-.938 3.274-3.158 6.566-6.301 9.805-9.495.717-.707 1.445-.97 2.442-.954 7.832.116 15.665.199 23.498.241 1.051.006 1.828.293 2.618.997 21.137 18.87 42.295 37.716 63.452 56.563.298.266.62.502.931.753-.066.098-.13.198-.194.298z" fill="#fdfdfd"/><path d="m222.372 91.644c-.585.388-.992.26-1.373.26-7.888.008-15.773.006-23.661.004-1.754-.001-1.76-.003-2.346-1.754-1.26-3.76-2.507-7.525-3.77-11.284-.988-2.938-1.648-3.264-4.558-2.288-14.649 4.908-29.308 9.789-43.938 14.753-2.388.809-4.777.455-7.173.561-.557.024-.79-.393-1.012-.806-2.26-4.205-4.496-8.424-6.797-12.606-.441-.804-.023-1.298.318-1.875 2.283-3.861 4.574-7.719 6.861-11.577.059-.101.12-.197.178-.297 1.023-1.753.955-2.429-.506-3.761-2.553-2.325-5.131-4.623-7.699-6.931-1.371-1.23-2.75-2.45-4.113-3.688-.774-.704-.783-.769.098-1.373 2.467-1.693 4.955-3.354 7.432-5.031 3.189-2.163 6.375-4.331 9.566-6.492 1.281-.868 1.287-.867 2.531-.025 8.574 5.806 17.146 11.615 25.719 17.422 14.527 9.839 29.056 19.676 43.584 29.515 3.19 2.162 6.38 4.325 9.568 6.49.328.219.643.458 1.091.783z" fill="#8c8b8a"/><path d="m111.063 148.92-56.105 48.917v-98.915zm60.148-.019c18.754-16.713 37.31-33.248 55.828-49.753.146.05.206.062.254.09.043.025.104.07.104.106a623457.76 623457.76 0 0 1 .08 98.61c-18.911-16.484-37.535-32.722-56.266-49.053zm-112.913-52.789h2.2l69.596-.001c.23 0 .466.033.689-.007.973-.167 1.275.356 1.428 1.213.449 2.546.959 5.082 1.443 7.622.139.733.166 1.507.422 2.196.563 1.525.12 2.694-.832 3.947-2.398 3.16-4.619 6.457-7.003 9.63-.949 1.264-1.028 2.395-.411 3.824 1.705 3.956 3.285 7.965 4.93 11.947.253.613.392 1.092-.209 1.664-4.002 3.807-7.963 7.655-12.058 11.607z" fill="#fdfdfd"/><path d="m136.199 114.711c.071-1.061.872-1.728 1.46-2.454 1.064-1.316 1.368-2.625.956-4.309-.682-2.786-1.113-5.633-1.667-8.451-.298-1.515-.315-1.515 1.169-2.012 11.687-3.914 23.373-7.829 35.061-11.74 4.238-1.419 8.478-2.831 12.718-4.242 1.361-.453 1.384-.454 1.807.802 3.863 11.479 7.721 22.96 11.567 34.445.168.503.498 1.005-.126 1.542-2.174 1.875-4.298 3.806-6.472 5.742-.409-.464-.049-1.112-.563-1.411-3.124-1.718-6.343-3.249-9.527-4.845-2.507-1.255-3.082-1.06-4.318 1.386-.908 1.797-1.818 3.595-2.701 5.403-.546 1.12-1.279 1.333-2.373.779-1.898-.961-3.786-1.948-5.719-2.841-1.943-.898-2.805-.601-3.779 1.271-.903 1.734-1.736 3.505-2.639 5.24-.885 1.697-1.291 1.835-2.983 1.026-1.558-.742-3.087-1.544-4.636-2.305-2.627-1.288-3.36-1.045-4.789 1.566-.135.255-.291.499-.435.749-.06.115-.13.229-.202.338a6.54 6.54 0 0 0 -.271.502c-.05.115-.109.227-.168.338-.051.116-.109.228-.166.342a4.934 4.934 0 0 1 -.173.34c-.052.117-.11.23-.169.345-.052.118-.113.23-.174.343-.053.118-.112.232-.17.348-.053.118-.113.23-.176.343-.051.117-.111.229-.168.344a4.045 4.045 0 0 1 -.172.334 6.815 6.815 0 0 1 -.164.332 3.505 3.505 0 0 1 -.171.32l-.243.485c-.055.11-.125.208-.205.3a1.17 1.17 0 0 1 -.297.217.784.784 0 0 1 -.363.03c-.178-.049-.344-.125-.512-.201a3.218 3.218 0 0 1 -.326-.152c-.109-.051-.215-.107-.32-.162a3.367 3.367 0 0 1 -.316-.163 8.793 8.793 0 0 0 -.475-.24 3.759 3.759 0 0 1 -.328-.152c-.113-.048-.222-.103-.332-.157a5.174 5.174 0 0 1 -.334-.165c-.115-.05-.227-.109-.338-.166a3.849 3.849 0 0 1 -.34-.17c-.117-.052-.23-.111-.344-.17a4.795 4.795 0 0 1 -.344-.172c-.115-.052-.229-.112-.342-.17a4.728 4.728 0 0 1 -.341-.172 7.047 7.047 0 0 1 -.337-.168 5.125 5.125 0 0 1 -.33-.169c-.109-.051-.217-.11-.323-.166a3.95 3.95 0 0 1 -.316-.166 8.114 8.114 0 0 0 -.472-.246 3.644 3.644 0 0 1 -.33-.152 9.614 9.614 0 0 0 -.522-.222c-.131-.037-.258-.077-.388-.112a1.971 1.971 0 0 0 -1.02.038c-.127.055-.254.105-.379.163-.316.145-.551.4-.822.605a4.48 4.48 0 0 1 -.191.077c-.222.009-.469.082-.585-.203-1.212-2.971-2.417-5.943-3.644-8.907-.146-.351-.192-.633.039-.952a868.939 868.939 0 0 0 3.019-4.188c.208-.291.501-.204.778-.197l.236-.026c.333-.002.635.112.934.241 1.047.484 2.061 1.034 3.107 1.514 1.512.691 2.127.528 3.037-.879 1.16-1.796 1.813-3.848 2.816-5.728.992-1.86 1.307-2.025 3.212-1.102 1.762.854 3.486 1.786 5.265 2.604 1.859.856 2.694.557 3.633-1.249.93-1.788 1.771-3.623 2.727-5.396.812-1.511 1.367-1.687 2.932-.952 1.824.857 3.594 1.825 5.417 2.685 1.856.874 2.658.604 3.638-1.233.894-1.676 1.698-3.399 2.561-5.094 1.064-2.089 1.292-2.161 3.452-1.1 1.499.737 2.983 1.501 4.483 2.236.621.305 1.25.595 1.939.709.758.126 1.387-.101 1.756-.793.399-.751.265-1.457-.35-2.044-.635-.605-1.435-.953-2.206-1.34-2.265-1.135-4.528-2.275-6.803-3.389-2.148-1.053-2.839-.808-3.952 1.368-.917 1.794-1.844 3.586-2.709 5.404-.605 1.273-1.399 1.496-2.629.855-1.889-.982-3.779-1.971-5.724-2.842-1.819-.814-2.58-.545-3.511 1.205-.893 1.677-1.695 3.4-2.562 5.092-1.091 2.132-1.518 2.278-3.621 1.254-1.708-.834-3.388-1.726-5.11-2.526-1.681-.781-2.527-.517-3.418 1.102-1.002 1.813-1.857 3.706-2.822 5.54-1.03 1.964-1.857 2.031-3.472.319z" fill="#fbf2a0"/><path d="m189.531 125.551.939.5c-.32.266-.609.49-.881.733-5.113 4.554-10.227 9.105-15.329 13.669-.608.546-1.171 1.009-2.096.939-.985-.073-1.483.678-1.933 1.467-.453.794-.678 1.714-1.35 2.388-.82.821-.926.85-1.814.066-1.771-1.559-3.58-3.079-5.266-4.724-1.23-1.2-2.54-1.771-4.295-1.7-2.641.106-5.291-.017-7.938-.061-.418-.006-.979.169-1.045-.546l-.006-.179c.012-.118.041-.233.081-.345.042-.109.097-.213.155-.314a8.68 8.68 0 0 0 .229-.464c.039-.108.091-.211.146-.312.045-.104.098-.205.152-.306.045-.105.104-.204.164-.302.082-.153.159-.309.231-.468.046-.112.101-.218.157-.325.049-.113.104-.222.159-.333a4.19 4.19 0 0 1 .168-.335c.051-.115.108-.227.165-.337.051-.115.109-.227.17-.336.051-.113.109-.224.166-.335.051-.114.111-.224.173-.333.085-.172.165-.347.243-.525.053-.129.113-.251.179-.375.14-.272.302-.526.563-.699.797-.419 1.45.048 2.109.366 1.709.826 3.383 1.724 5.104 2.525 1.968.915 2.927.589 3.944-1.326.944-1.777 1.826-3.589 2.711-5.397.611-1.251 1.453-1.486 2.664-.861a249.21 249.21 0 0 0 5.094 2.546c2.369 1.155 3.135.889 4.397-1.471.87-1.624 1.532-3.348 2.396-4.975.906-1.709 1.209-1.862 2.955-.932 2.122 1.13 4.454 1.862 6.339 3.417z" fill="#fbf2a0"/><path d="m189.531 125.551c-1.969-.65-3.715-1.774-5.588-2.633-.781-.357-1.542-.761-2.408-1.19-.814 1.115-1.279 2.403-1.906 3.599-.638 1.221-1.212 2.475-1.846 3.696-.901 1.734-1.909 2.098-3.654 1.264-2.121-1.013-4.211-2.091-6.324-3.122-1.073-.524-1.097-.514-1.643.565-1.034 2.049-2.035 4.116-3.08 6.161-.943 1.845-1.913 2.178-3.775 1.276-2.064-1-4.098-2.063-6.16-3.065-.471-.228-.998-.729-1.523-.045-.2.183-.14.495-.333.681l-.007.013c-.211.177-.144.493-.339.678l-.007.014c-.211.176-.143.494-.342.675l-.006.015c-.207.177-.139.493-.341.674l-.007.017c-.205.182-.141.495-.334.682l-.006.012c-.213.179-.146.495-.339.682l-.005.01c-.215.176-.148.494-.34.681l-.006.012c-.215.174-.146.492-.344.675l-.007.014c-.208.182-.146.494-.332.687l-.005.01c-2.429.748-4.859 1.144-7.295.027-.061-.012-.121-.021-.182-.031a1.662 1.662 0 0 1 -.358-.102 3.405 3.405 0 0 1 -.337-.167c-.115-.051-.228-.11-.34-.166a4.508 4.508 0 0 1 -.34-.172 7.098 7.098 0 0 1 -.339-.167 4.113 4.113 0 0 1 -.331-.169 5.435 5.435 0 0 1 -.324-.162 3.351 3.351 0 0 1 -.307-.164c-.145-.076-.291-.153-.441-.217-.097-.032-.193-.067-.29-.096.001.006-.146-.004-.146-.004s-.146.022-.145.029a.956.956 0 0 0 -.234.191c-.061.092-.131.17-.208.245 0 .002-.141.08-.141.08-.352.115-.817.5-1.016-.055-.521-1.47-1.615-2.765-1.417-4.463l-.005.011c.274-.422.729-.67 1.03-1.067l-.014.01c.634-.226 1.271-.185 1.908-.015.1-.049.17-.021.211.08.141.121.279.248.477.264.102-.045.172-.018.215.084.141.119.278.246.477.262.101-.044.173-.015.215.086.143.119.279.246.479.259.1-.043.171-.015.213.087.146.121.287.253.494.256.096-.046.161-.02.196.08.144.131.287.263.499.266.095-.048.158-.021.192.08.142.128.281.258.487.268.098-.045.166-.017.205.084.143.123.281.252.486.261.098-.044.165-.016.204.084.148.128.292.263.507.261l.117-.016.066.096c.149.133.296.271.518.264l.11-.018.063.094c.144.135.288.269.503.271l.117-.016.072.096c.146.131.289.266.505.265l-.001.019c.235-.018.393-.153.516-.342l-.014.018c.243-.17.18-.495.357-.697l-.004.009c.234-.175.173-.498.35-.7l-.004.008c.234-.174.174-.496.348-.701l-.005.01c.237-.175.178-.497.349-.705l-.006.013c.24-.171.179-.495.354-.698l-.004.008c.236-.174.176-.496.349-.703l-.006.012c.239-.175.181-.497.349-.706l-.007.014c.251-.173.174-.509.356-.716.039-.537.369-.954.602-1.407.946-1.844 1.916-2.192 3.756-1.302 2.012.972 3.997 1.995 5.998 2.988 1.313.649 1.323.646 1.994-.688.955-1.894 1.89-3.798 2.846-5.691 1.12-2.221 1.998-2.508 4.248-1.389 2.253 1.121 4.498 2.256 6.725 3.374.557-.204.623-.704.819-1.09 1.04-2.043 2.04-4.106 3.095-6.142.935-1.807 1.859-2.138 3.614-1.282a697.131 697.131 0 0 1 8.916 4.433c.542.274 1.194.484 1.337 1.223-.01.113-.021.226-.026.34-.079 2.305-.177 2.404-2.55 2.578zm-53.332-10.84c.057.006.12 0 .171.021.678.287 1.433.918 2.011.782.748-.176.852-1.26 1.215-1.958.904-1.73 1.742-3.496 2.648-5.226.867-1.652 1.85-1.999 3.535-1.201 2.129 1.008 4.221 2.093 6.333 3.133 1.097.539 1.118.536 1.653-.515 1.016-1.997 2.006-4.008 3.018-6.008 1.102-2.177 1.885-2.443 4.119-1.358 1.755.853 3.469 1.796 5.24 2.611 2.181 1.005 1.577 1.281 2.697-.846.963-1.83 1.836-3.707 2.777-5.548.966-1.888 1.855-2.196 3.75-1.274 2.941 1.434 5.867 2.901 8.795 4.362.307.153.611.33.875.547.822.679 1.049 1.732.598 2.634-.484.971-1.563 1.456-2.611 1.122-.489-.156-.953-.403-1.415-.633-2.21-1.101-4.416-2.21-6.742-3.376-1.017 2.023-2.065 3.996-3.011 6.019-1.457 3.118-2.032 3.891-5.792 1.896-1.92-1.02-3.884-1.953-5.927-2.974-1.119 2.223-2.176 4.319-3.23 6.417-.18.359-.33.735-.523 1.088-.837 1.527-1.826 1.889-3.438 1.138-1.873-.872-3.708-1.823-5.558-2.746-1.994-.995-1.99-.997-2.943.929-.894 1.802-1.778 3.608-2.697 5.398-.973 1.891-1.829 2.187-3.758 1.243-1.125-.55-2.317-.98-3.327-1.752-.147-.291-.472-.234-.703-.357l-.015-.004c.2-1.537 1.304-2.503 2.255-3.564z" fill="#050607"/><path d="m223.529 96.461c-2.2 2.273-4.671 4.254-7.013 6.373-4.009 3.629-8.065 7.205-12.109 10.794-.332.295-.592.725-1.255.751-.689-2.021-1.396-4.072-2.091-6.13-1.231-3.646-2.46-7.296-3.681-10.946-.09-.268-.107-.56-.158-.841.359-.259.775-.17 1.17-.17 7.988-.006 15.978-.006 23.967-.001.395.001.81-.087 1.17.17z" fill="#8c8b8a"/><path d="m223.529 96.461-26.307.001c.332-.669.943-.333 1.41-.335 6.612-.025 13.225-.019 19.836-.017 1.668.002 3.334.014 5.001.025.049 0 .14.06.137.084-.006.083-.047.162-.077.242z" fill="#9b8e88"/><path d="m141.23 138.311a.49.49 0 0 1 -.504.366c-1.412.005-2.824.003-4.163.003-.308-.656.267-.979.205-1.439l.005-.01c.219-.171.131-.515.381-.667l-.018.021c.215-.245.43-.251.645.001l-.008-.006c.213.159.537.096.699.354l-.012-.007c.217.153.535.097.707.343l-.008-.004c.209.166.531.103.697.353l-.007-.005c.21.163.532.101.698.352l-.008-.006c.211.162.531.103.699.351z" fill="#f2ea9e"/><path d="m141.717 161.769c11.145.031 20.586 7.623 22.822 18.386.244 1.178.323 2.393.457 3.593.117 1.032-.078 1.96-1.025 2.569-.979.628-1.854.279-2.725-.283-4.17-2.694-8.758-4.296-13.636-5.05-8.841-1.364-17.165.135-24.913 4.663-.396.23-.773.502-1.186.7-1.613.776-3.079-.065-3.143-1.863a17.956 17.956 0 0 1 1.04-6.785c3.19-8.839 9.464-14.009 18.7-15.643 1.202-.212 2.4-.275 3.609-.287z" fill="#131312"/><g fill="#121212"><path d="m135.361 131.666c.035.721-.563.831-1.03 1.067.116-.575.435-.954 1.03-1.067z"/><path d="m137.256 131.661-1.908.015c.632-.494 1.269-.459 1.908-.015zm9.176 1.408c.007.295-.053.557-.348.701.003-.289.07-.547.348-.701z"/><path d="m146.088 133.763c.006.294-.055.555-.35.7.006-.288.073-.547.35-.7z"/><path d="m145.742 134.454c.005.295-.057.557-.357.697.011-.288.079-.547.357-.697zm1.726-3.461c.008.297-.052.559-.349.703.006-.288.072-.547.349-.703z"/><path d="m147.123 131.688c.006.295-.055.557-.354.698.007-.288.075-.547.354-.698zm.688-1.389c.01.298-.049.561-.349.706.004-.291.065-.553.349-.706z"/><path d="m148.16 129.597c.006.302-.052.57-.356.716.006-.295.073-.56.356-.716zm-14.202-11.318c.313-.035.587.006.704.357-.281-.029-.558-.063-.704-.357zm12.817 14.095c.008.297-.051.56-.349.705.006-.29.066-.552.349-.705zm-8.14-.023-.477-.262c.22-.023.383.057.477.262zm6.249 3.106a.594.594 0 0 1 -.505-.265c.223-.016.4.055.505.265zm-1.37-.692a.606.606 0 0 1 -.518-.264c.225-.015.408.053.518.264zm.675.347a.6.6 0 0 1 -.503-.271c.225-.016.4.061.503.271zm-4.861-2.417-.479-.259c.218-.019.383.055.479.259zm3.485 1.726a.6.6 0 0 1 -.507-.261c.222-.018.401.05.507.261zm-.711-.345a.571.571 0 0 1 -.486-.261c.218-.019.387.055.486.261zm-.692-.345a.58.58 0 0 1 -.487-.268c.222-.017.39.06.487.268zm3.988 1.403c-.105.213-.284.316-.516.342zm-7.455-3.129a.573.573 0 0 1 -.477-.264c.221-.022.385.057.477.264zm2.787 1.379a.591.591 0 0 1 -.499-.266c.224-.018.398.057.499.266zm-.695-.346a.582.582 0 0 1 -.494-.256c.22-.019.393.049.494.256zm10.561 1.078c.004-.281.066-.532.342-.675.011.288-.086.523-.342.675zm-2.066 4.157c-.003-.284.056-.537.332-.687.007.287-.061.537-.332.687zm1.378-2.77c0-.281.061-.534.334-.682.009.287-.073.528-.334.682zm-.345.693c0-.282.061-.535.339-.682.009.289-.076.531-.339.682zm1.727-3.459c.001-.281.061-.533.333-.681.01.286-.073.526-.333.681zm-2.071 4.15c0-.284.061-.537.34-.681.008.288-.082.527-.34.681zm-.35.686c.004-.281.065-.533.344-.675.01.289-.091.521-.344.675zm1.38-2.768c.005-.278.067-.53.341-.674.011.288-.086.52-.341.674zm.695-1.377c.001-.281.063-.534.339-.678.012.288-.08.524-.339.678zm-13.163 3.158-.645-.001c.216-.392.43-.401.645.001z"/><path d="m137.154 136.563c-.05.268-.121.521-.381.667.006-.291.077-.545.381-.667zm1.319.372c-.283-.02-.561-.049-.699-.354.304-.023.569.033.699.354zm1.384.684c-.283-.017-.556-.055-.697-.353.301-.018.565.039.697.353z"/><path d="m140.549 137.966c-.281-.021-.557-.055-.698-.352.301-.019.565.036.698.352z"/><path d="m141.24 138.311c-.285-.015-.559-.05-.699-.351.302-.022.565.035.699.351zm-2.072-1.04c-.281-.018-.563-.04-.707-.343.305-.026.568.029.707.343z"/></g><path d="m154.434 171.019c-1.221.686-2.58.968-3.869 1.421-3.079 1.081-6.207 2.027-9.273 3.146-2.141.78-4.382.827-6.579 1.201a44.108 44.108 0 0 0 -11.313 3.554c.206-4.601 5.127-10.578 10.949-12.902 7.29-2.912 15.747-.922 20.085 3.58z" fill="#fbf2a0"/><path d="m160.27 180.552c-3.227-1.543-6.253-2.55-9.451-3.321.307-.425.721-.508 1.122-.64a354.204 354.204 0 0 0 5.036-1.693c.555-.191.949-.157 1.271.431.85 1.546 1.58 3.13 2.022 5.223z" fill="#8a8989"/><path d="m79.426 139.657-.426-.058c.135-.275.365-.391.607-.2.127.102-.015.239-.181.258z" fill="#b7b4b4"/><path d="m203.469 139.656-.422.403c-.313-.103-.549-.464-.412-.623.297-.345.601-.053.834.22z" fill="#a3a0a0"/><path d="m195.912 146.004 17.17 6.798c0 .237.034.364-.006.462-.481 1.16-.975 2.317-1.463 3.475-1.275-.093-2.354-.757-3.504-1.207a4314.935 4314.935 0 0 1 -20.45-8.063c-.575-.229-1.45-.22-1.397-1.229.063-1.235-.268-1.323 1.191-1.894 5.755-2.252 11.492-4.55 17.239-6.824 1.862-.737 3.739-1.439 5.593-2.197a7.035 7.035 0 0 1 1.359-.412c.465 1.151.898 2.27 1.371 3.372.18.42.039.653-.323.814-.366.162-.743.303-1.116.451-4.949 1.958-9.9 3.919-14.854 5.87-.266.106-.558.142-.81.584zm-109.786 1.319c-2.906-1.16-5.446-2.179-7.991-3.188-2.82-1.119-5.646-2.224-8.464-3.349-1.163-.464-1.187-.492-.759-1.544.384-.944.43-2.307 1.283-2.706.867-.405 1.895.515 2.834.883 7.035 2.756 14.056 5.549 21.086 8.313.72.283 1.33.472 1.293 1.501-.032.888-.32 1.307-1.131 1.624-7.68 3.002-15.344 6.043-23.014 9.067-1.149.453-1.176.45-1.658-.785-.352-.9-1.197-1.875-.87-2.703.331-.837 1.637-.892 2.524-1.247 4.833-1.937 9.684-3.827 14.867-5.866z" fill="#050607"/></g></svg>