<svg height='100px' width='100px'  fill="#000000" xmlns="http://www.w3.org/2000/svg" viewBox="0 0 24 24" x="0px" y="0px"><title>_</title><path d="M14,20V18a3,3,0,0,0-3-3H4a3,3,0,0,0-3,3v2Zm-1-1H2V18a2.0023,2.0023,0,0,1,2-2h7a2.0023,2.0023,0,0,1,2,2ZM7.5,7A2.5,2.5,0,1,1,5,9.5,2.50286,2.50286,0,0,1,7.5,7m0-1A3.5,3.5,0,1,0,11,9.5,3.5,3.5,0,0,0,7.5,6ZM19,7a.96262.96262,0,0,1,.24377.04919l1.80542-1.80542A.96262.96262,0,0,1,21,5a1,1,0,1,1,1,1,.96315.96315,0,0,1-.24377-.04919L19.95081,7.75623A.96262.96262,0,0,1,20,8a1,1,0,0,1-2,0c0-.02051.01044-.0376.01166-.0578l-1.577-1.05145A.97928.97928,0,0,1,16,7c-.02057,0-.03772-.0105-.058-.01172L14.89075,8.56519A.98.98,0,0,1,15,9a1,1,0,1,1-1-1c.02057,0,.03772.0105.058.01172l1.05127-1.577A.97974.97974,0,0,1,15,6a1,1,0,0,1,2,0c0,.02051-.01044.03766-.01166.05786l1.57709,1.05121A.97963.97963,0,0,1,19,7Z"></path></svg>